<?xml version="1.0" encoding="UTF-8" standalone="yes"?>
<svg width="100%" height="100%" viewBox="0 0 256 256" version="1.2" xml:space="preserve" fill-rule="evenodd" stroke-linejoin="round" stroke-miterlimit="2" baseProfile="tiny-ps" xmlns="http://www.w3.org/2000/svg">
  <title>bimi-svg-tiny-12-ps</title>
  <g transform="matrix(0.165385,0,0,0.165385,-46.948451,441.439874)">
    <path d="M512.161,-1461.681C272.275,-1700.994 272.275,-2089.442 512.161,-2328.755C752.052,-2568.064 1141.437,-2568.064 1381.328,-2328.755C1429.834,-2280.361 1468.535,-2225.869 1497.428,-2167.74L1497.346,-2167.698L1502.449,-2157.484L1573.336,-2299.317L1783.312,-2194.874L1633.536,-1895.194L1783.409,-1595.32L1573.433,-1490.881L1287.366,-2063.262L1287.374,-2063.262C1269.496,-2099.348 1245.496,-2133.184 1215.395,-2163.221C1067.101,-2311.162 826.388,-2311.162 678.094,-2163.221C529.797,-2015.285 529.797,-1775.151 678.094,-1627.214C826.388,-1479.274 1067.101,-1479.274 1215.395,-1627.214C1258.505,-1670.221 1289.087,-1721.024 1307.128,-1775.084L1433.837,-1521.553L1433.935,-1521.362C1417.91,-1500.624 1400.376,-1480.683 1381.328,-1461.681C1141.437,-1222.371 752.052,-1222.371 512.161,-1461.681Z" fill="rgb(3,169,244)"/>
  </g>
</svg>